# xmcd
#
# Track frame offsets: 
#        150
#        29625
#        52752
#        56207
#        79315
#        90310
#        115542
#        135110
#        162315
#        183762
#        203542
#
# Disc length: 3021 seconds
#
# Revision: 2
# Processed by: cddbd v1.5.2PL0 Copyright (c) Steve Scherf et al.
# Submitted via: ExactAudioCopy v1.3
#
DISCID=7e0bcb0b
DTITLE=RAab - Your're The One
DYEAR=1993
DGENRE=R&B
TTITLE0=Try My Love
TTITLE1=Foreplay
TTITLE2=Where She At?
TTITLE3=Feel Me
TTITLE4=Give In To Me
TTITLE5=Give It A Try
TTITLE6=Your're The One
TTITLE7=Close The Door
TTITLE8=Can't Let Go
TTITLE9=Good Lovin'
TTITLE10=It's Just Like That
EXTD=
EXTT0=
EXTT1=
EXTT2=
EXTT3=
EXTT4=
EXTT5=
EXTT6=
EXTT7=
EXTT8=
EXTT9=
EXTT10=
PLAYORDER=
